<svg xmlns="http://www.w3.org/2000/svg" xmlns:xlink="http://www.w3.org/1999/xlink" width="500" zoomAndPan="magnify" viewBox="0 0 375 374.999991" height="500" preserveAspectRatio="xMidYMid meet" version="1.2"><defs><clipPath id="51a16ce77a"><path d="M 264.898438 172 L 290 172 L 290 204 L 264.898438 204 Z M 264.898438 172 "/></clipPath><clipPath id="b38f38a4bb"><path d="M 273 156.34375 L 305 156.34375 L 305 189 L 273 189 Z M 273 156.34375 "/></clipPath><clipPath id="013b74eb09"><path d="M 312 181 L 337.648438 181 L 337.648438 214 L 312 214 Z M 312 181 "/></clipPath></defs><g id="94bb29639f"><g style="fill:#000000;fill-opacity:1;"><g transform="translate(32.43462, 224.927033)"><path style="stroke:none" d="M 28.046875 0 L 0.640625 -68.0625 L 19.53125 -68.0625 L 32.390625 -33.296875 L 36.046875 -21.765625 L 38.03125 -27.53125 C 38.539062 -29.445312 39.160156 -31.367188 39.890625 -33.296875 L 52.828125 -68.0625 L 71.328125 -68.0625 L 44.3125 0 Z M 28.046875 0 "/></g></g><g style="fill:#000000;fill-opacity:1;"><g transform="translate(97.096614, 224.927033)"><path style="stroke:none" d="M 9.40625 -77.21875 L 9.40625 -93.859375 L 27.40625 -93.859375 L 27.40625 -77.21875 Z M 9.40625 0 L 9.40625 -68.0625 L 27.40625 -68.0625 L 27.40625 0 Z M 9.40625 0 "/></g></g><g style="fill:#000000;fill-opacity:1;"><g transform="translate(125.265056, 224.927033)"><path style="stroke:none" d="M 3.015625 -19.40625 L 21.125 -22.15625 C 22.707031 -14.976562 27.550781 -11.390625 35.65625 -11.390625 C 39.625 -11.390625 42.757812 -12.03125 45.0625 -13.3125 C 47.375 -14.59375 48.53125 -16.453125 48.53125 -18.890625 C 48.53125 -20.210938 48.050781 -21.332031 47.09375 -22.25 C 46.132812 -23.164062 44.160156 -23.921875 41.171875 -24.515625 C 26.660156 -27.765625 17.484375 -30.691406 13.640625 -33.296875 C 8.210938 -36.960938 5.5 -42.082031 5.5 -48.65625 C 5.5 -54.507812 7.835938 -59.441406 12.515625 -63.453125 C 17.191406 -67.460938 24.4375 -69.46875 34.25 -69.46875 C 43.507812 -69.46875 50.410156 -67.960938 54.953125 -64.953125 C 59.503906 -61.941406 62.613281 -57.472656 64.28125 -51.546875 L 47.3125 -48.40625 C 45.863281 -53.90625 41.597656 -56.65625 34.515625 -56.65625 C 26.359375 -56.65625 22.28125 -54.78125 22.28125 -51.03125 C 22.28125 -49.101562 23.644531 -47.617188 26.375 -46.578125 C 29.101562 -45.535156 33.925781 -44.222656 40.84375 -42.640625 C 50.28125 -40.460938 56.929688 -37.835938 60.796875 -34.765625 C 64.660156 -31.691406 66.59375 -27.1875 66.59375 -21.25 C 66.59375 -15.019531 64 -9.65625 58.8125 -5.15625 C 53.625 -0.65625 45.90625 1.59375 35.65625 1.59375 C 26.394531 1.59375 19.050781 -0.289062 13.625 -4.0625 C 8.207031 -7.84375 4.671875 -12.957031 3.015625 -19.40625 Z M 3.015625 -19.40625 "/></g></g><g style="fill:#000000;fill-opacity:1;"><g transform="translate(189.92705, 224.927033)"><path style="stroke:none" d="M 68.703125 -47.890625 L 51.03125 -44.6875 C 50.382812 -48.1875 48.992188 -50.832031 46.859375 -52.625 C 44.734375 -54.414062 42.003906 -55.3125 38.671875 -55.3125 C 34.234375 -55.3125 30.679688 -53.785156 28.015625 -50.734375 C 25.347656 -47.679688 24.015625 -42.53125 24.015625 -35.28125 C 24.015625 -27.125 25.367188 -21.390625 28.078125 -18.078125 C 30.785156 -14.773438 34.398438 -13.125 38.921875 -13.125 C 42.335938 -13.125 45.144531 -14.101562 47.34375 -16.0625 C 49.539062 -18.03125 51.066406 -21.382812 51.921875 -26.125 L 69.59375 -23.046875 C 65.882812 -6.617188 55.40625 1.59375 38.15625 1.59375 C 28.164062 1.59375 20.222656 -1.550781 14.328125 -7.84375 C 8.441406 -14.132812 5.5 -22.832031 5.5 -33.9375 C 5.5 -45.15625 8.441406 -53.878906 14.328125 -60.109375 C 20.222656 -66.347656 28.253906 -69.46875 38.421875 -69.46875 C 46.742188 -69.46875 53.347656 -67.707031 58.234375 -64.1875 C 63.117188 -60.664062 66.609375 -55.234375 68.703125 -47.890625 Z M 68.703125 -47.890625 "/></g></g><g clip-rule="nonzero" clip-path="url(#51a16ce77a)"><path style=" stroke:none;fill-rule:nonzero;fill:#000000;fill-opacity:1;" d="M 289.78125 203.382812 L 271.078125 172.339844 C 267.152344 178.140625 264.859375 185.128906 264.859375 192.648438 C 264.859375 196.382812 265.429688 199.988281 266.480469 203.382812 Z M 289.78125 203.382812 "/></g><path style=" stroke:none;fill-rule:nonzero;fill:#000000;fill-opacity:1;" d="M 297.640625 177.238281 L 334.101562 177.238281 C 329.417969 167.277344 320.347656 159.785156 309.390625 157.25 Z M 297.640625 177.238281 "/><g clip-rule="nonzero" clip-path="url(#b38f38a4bb)"><path style=" stroke:none;fill-rule:nonzero;fill:#000000;fill-opacity:1;" d="M 285.9375 188.488281 L 304.75 156.484375 C 303.578125 156.367188 302.398438 156.308594 301.199219 156.308594 C 290.363281 156.308594 280.628906 161.078125 273.964844 168.625 Z M 285.9375 188.488281 "/></g><path style=" stroke:none;fill-rule:nonzero;fill:#000000;fill-opacity:1;" d="M 293.515625 227.84375 L 305.023438 207.773438 L 268.171875 207.773438 C 273.003906 218.285156 282.703125 226.105469 294.371094 228.335938 Z M 293.515625 227.84375 "/><g clip-rule="nonzero" clip-path="url(#013b74eb09)"><path style=" stroke:none;fill-rule:nonzero;fill:#000000;fill-opacity:1;" d="M 312.5625 181.628906 L 330.929688 213.503906 C 335.089844 207.597656 337.542969 200.40625 337.542969 192.648438 C 337.542969 188.808594 336.9375 185.105469 335.828125 181.628906 Z M 312.5625 181.628906 "/></g><path style=" stroke:none;fill-rule:nonzero;fill:#000000;fill-opacity:1;" d="M 316.304688 196.925781 L 298.007812 228.839844 C 299.058594 228.929688 300.125 228.988281 301.199219 228.988281 C 311.789062 228.988281 321.332031 224.433594 327.980469 217.183594 Z M 316.304688 196.925781 "/></g></svg>